<?xml version="1.0" encoding="UTF-8" standalone="no"?>
<!-- Created with Inkscape (http://www.inkscape.org/) -->

<svg
   version="1.1"
   id="svg62"
   width="114.36652"
   height="68.690125"
   viewBox="0 0 114.36652 68.690123"
   sodipodi:docname="frying.svg"
   inkscape:version="1.2 (dc2aedaf03, 2022-05-15)"
   xmlns:inkscape="http://www.inkscape.org/namespaces/inkscape"
   xmlns:sodipodi="http://sodipodi.sourceforge.net/DTD/sodipodi-0.dtd"
   xmlns="http://www.w3.org/2000/svg"
   xmlns:svg="http://www.w3.org/2000/svg">
  <defs
     id="defs66">
    <filter
       inkscape:label="Blend Opposites"
       inkscape:menu="Color"
       inkscape:menu-tooltip="Blend an image with its hue opposite"
       style="color-interpolation-filters:sRGB"
       id="filter383"
       x="-0.065182917"
       y="-0.10862903"
       width="1.1303658"
       height="1.2172581">
      <feColorMatrix
         type="hueRotate"
         values="180"
         result="fbSourceGraphic"
         in="SourceGraphic"
         id="feColorMatrix365" />
      <feColorMatrix
         values="1 0 0 0 0 0 1 0 0 0 0 0 1 0 0 -0.2125 -0.7154 -0.0721 1 0 "
         in="SourceGraphic"
         result="result1"
         id="feColorMatrix367" />
      <feColorMatrix
         type="hueRotate"
         values="0"
         id="feColorMatrix369" />
      <feColorMatrix
         values="1 0 0 0 0 0 1 0 0 0 0 0 1 0 0 0 0 0 1 0 "
         result="result3"
         id="feColorMatrix371" />
      <feComposite
         in2="result3"
         result="result6"
         operator="atop"
         id="feComposite373" />
      <feComposite
         in2="result6"
         operator="arithmetic"
         k2="0.5"
         k1="0.5"
         k3="0.5"
         in="result6"
         result="result4"
         id="feComposite375"
         k4="0" />
      <feBlend
         in2="fbSourceGraphic"
         mode="normal"
         result="result2"
         in="result4"
         id="feBlend377" />
      <feComposite
         in2="result2"
         operator="arithmetic"
         k2="1"
         result="result5"
         id="feComposite379"
         k1="0"
         k3="0"
         k4="0" />
      <feComposite
         in2="SourceGraphic"
         operator="in"
         result="result5"
         id="feComposite381" />
    </filter>
    <filter
       inkscape:label="Evanescent"
       inkscape:menu="Blurs"
       inkscape:menu-tooltip="Blur the contents of objects, preserving the outline and adding progressive transparency at edges"
       style="color-interpolation-filters:sRGB"
       id="filter930"
       x="-0.065182911"
       y="-0.10862903"
       width="1.1303658"
       height="1.2172581">
      <feGaussianBlur
         result="result6"
         stdDeviation="3"
         in="SourceGraphic"
         id="feGaussianBlur924" />
      <feColorMatrix
         values="1 0 0 0 0 0 1 0 0 0 0 0 1 0 0 0 0 0 1 0 "
         result="result7"
         in="SourceGraphic"
         id="feColorMatrix926" />
      <feComposite
         operator="in"
         in="result6"
         in2="result7"
         id="feComposite928" />
    </filter>
  </defs>
  <sodipodi:namedview
     id="namedview64"
     pagecolor="#ffffff"
     bordercolor="#000000"
     borderopacity="0.25"
     inkscape:showpageshadow="2"
     inkscape:pageopacity="0.0"
     inkscape:pagecheckerboard="0"
     inkscape:deskcolor="#d1d1d1"
     showgrid="false"
     inkscape:zoom="5.6688742"
     inkscape:cx="119.77687"
     inkscape:cy="37.573598"
     inkscape:window-width="1920"
     inkscape:window-height="1034"
     inkscape:window-x="0"
     inkscape:window-y="0"
     inkscape:window-maximized="1"
     inkscape:current-layer="g68"
     showborder="false" />
  <g
     inkscape:groupmode="layer"
     inkscape:label="Image"
     id="g68"
     transform="translate(-94.072322,-96.441028)"
     style="filter:url(#filter383)"
     inkscape:transform-center-x="28.75559"
     inkscape:transform-center-y="-20.828769">
    <path
       style="fill:#800080;stroke:none;stroke-width:2.14648;filter:url(#filter930)"
       d="m 144.05577,104.6061 c 2.37598,0.0438 4.69716,0.44063 7.07784,0.45087 1.51163,0.007 3.04145,0.0523 4.55004,-0.04 3.97371,-0.24312 7.81697,-2.27845 2.98028,-5.314163 -5.31344,-3.33481 -14.52332,-1.50863 -14.60816,4.903313 m -33.36696,13.98818 31.85028,0.90247 52.07269,-0.90247 c -2.88321,-5.85053 -10.17996,-8.65038 -16.68349,-10.31461 -14.68146,-3.757 -32.65311,-3.95857 -47.52264,-0.86 -6.7155,1.39945 -17.90147,4.35957 -19.71684,11.17461 m 75.83401,-2.70739 -55.10605,0.45124 c 3.91172,-1.46502 9.9107,-0.75433 14.15568,-0.92025 9.36752,-0.36608 19.00906,-0.9562 28.31136,-2.04688 4.45146,-0.52194 10.26894,-1.80925 12.63901,2.51589 m -89.48414,6.31725 c 1.93704,4.15263 3.59716,3.62591 7.07041,6.00945 3.10349,2.12977 6.58452,5.92057 8.65813,8.88119 3.342,4.77177 3.5323,12.60966 5.06338,18.04926 0.86345,3.06747 1.80364,6.27528 5.49762,7.45299 6.35104,2.02513 14.09572,1.57164 20.72755,1.57164 8.51616,0 17.32656,0.56855 25.78356,-0.32263 4.18857,-0.4413 11.17743,0.33887 14.39229,-2.56254 6.29068,-5.67785 3.35135,-17.10123 7.77652,-23.73749 2.05106,-3.0756 5.96915,-7.59685 9.26186,-9.65482 2.03791,-1.27383 7.17643,-1.43912 6.0738,-5.11187 -0.54803,-1.82469 -4.44236,-2.28689 -6.15974,-2.36202 -6.44589,-0.28188 -13.31595,-0.36978 -19.71684,0.30431 -19.003,2.00126 -39.49875,0.12883 -58.64497,0.12883 -8.83228,0 -17.36386,-1.56103 -25.78357,1.3537 m 12.63901,-0.45124 v 0.45124 h -6.06673 c 1.94803,-1.27338 3.84884,-1.10475 6.06673,-0.45124 m 91.50637,0 v 0.45124 l -5.56116,0.45123 c 0.50404,-2.09954 3.75782,-1.49092 5.56116,-0.90247 m -91.50637,1.80493 v 0.45123 l -9.60565,-0.45123 h 9.60565 m 95.55085,-0.45123 v 0.45123 l -10.1112,0.45123 10.1112,-0.90246 m -17.18904,2.25616 -1.01112,2.25615 -26.28913,-2.25615 8.08896,-0.45124 19.21129,0.45124 m -6.06672,30.23251 c -1.30283,4.011 -8.24215,3.63738 -12.13345,4.11974 -12.8943,1.59917 -25.05757,0.42416 -37.917,0.39258 l 15.1668,-0.52794 z"
       id="path429"
       transform="matrix(0.52755458,0,0,0.41141524,72.573303,97.653827)" />
  </g>
</svg>
